<mxfile host="app.diagrams.net" modified="2024-07-16T23:47:00.457Z" agent="Mozilla/5.0 (Macintosh; Intel Mac OS X 10_15_7) AppleWebKit/605.1.15 (KHTML, like Gecko) Version/17.5 Safari/605.1.15" etag="rVoPw9vcRKDd6s-xr5sZ" version="24.7.0" type="device">
  <diagram name="Page-1" id="VvEjOUvaLnnVLo2tN-xd">
    <mxGraphModel dx="1972" dy="651" grid="1" gridSize="10" guides="1" tooltips="1" connect="1" arrows="1" fold="1" page="1" pageScale="1" pageWidth="850" pageHeight="1100" math="0" shadow="0">
      <root>
        <mxCell id="0" />
        <mxCell id="1" parent="0" />
        <mxCell id="AU5U2kqtZq918F_KihSC-2" style="edgeStyle=orthogonalEdgeStyle;rounded=0;orthogonalLoop=1;jettySize=auto;html=1;" edge="1" parent="1" target="AU5U2kqtZq918F_KihSC-3">
          <mxGeometry relative="1" as="geometry">
            <mxPoint x="120" y="180" as="targetPoint" />
            <mxPoint x="150" y="105" as="sourcePoint" />
            <Array as="points">
              <mxPoint x="70" y="105" />
            </Array>
          </mxGeometry>
        </mxCell>
        <mxCell id="AU5U2kqtZq918F_KihSC-5" style="edgeStyle=orthogonalEdgeStyle;rounded=0;orthogonalLoop=1;jettySize=auto;html=1;" edge="1" parent="1" source="AU5U2kqtZq918F_KihSC-1" target="AU5U2kqtZq918F_KihSC-4">
          <mxGeometry relative="1" as="geometry" />
        </mxCell>
        <mxCell id="AU5U2kqtZq918F_KihSC-1" value="CalendarView" style="ellipse;whiteSpace=wrap;html=1;" vertex="1" parent="1">
          <mxGeometry x="160" y="80" width="140" height="50" as="geometry" />
        </mxCell>
        <mxCell id="AU5U2kqtZq918F_KihSC-7" value="" style="edgeStyle=orthogonalEdgeStyle;rounded=0;orthogonalLoop=1;jettySize=auto;html=1;" edge="1" parent="1" source="AU5U2kqtZq918F_KihSC-3" target="AU5U2kqtZq918F_KihSC-6">
          <mxGeometry relative="1" as="geometry" />
        </mxCell>
        <mxCell id="AU5U2kqtZq918F_KihSC-25" style="edgeStyle=orthogonalEdgeStyle;rounded=0;orthogonalLoop=1;jettySize=auto;html=1;exitX=1;exitY=1;exitDx=0;exitDy=0;entryX=1;entryY=0;entryDx=0;entryDy=0;dashed=1;" edge="1" parent="1" source="AU5U2kqtZq918F_KihSC-3" target="AU5U2kqtZq918F_KihSC-6">
          <mxGeometry relative="1" as="geometry" />
        </mxCell>
        <mxCell id="AU5U2kqtZq918F_KihSC-3" value="Calendar" style="ellipse;whiteSpace=wrap;html=1;" vertex="1" parent="1">
          <mxGeometry x="10" y="190" width="120" height="80" as="geometry" />
        </mxCell>
        <mxCell id="AU5U2kqtZq918F_KihSC-20" style="edgeStyle=orthogonalEdgeStyle;rounded=0;orthogonalLoop=1;jettySize=auto;html=1;exitX=0;exitY=0;exitDx=0;exitDy=0;dashed=1;" edge="1" parent="1" source="AU5U2kqtZq918F_KihSC-4" target="AU5U2kqtZq918F_KihSC-1">
          <mxGeometry relative="1" as="geometry">
            <Array as="points">
              <mxPoint x="358" y="120" />
            </Array>
          </mxGeometry>
        </mxCell>
        <mxCell id="AU5U2kqtZq918F_KihSC-21" value="birthdayCreated state" style="edgeLabel;html=1;align=center;verticalAlign=middle;resizable=0;points=[];" vertex="1" connectable="0" parent="AU5U2kqtZq918F_KihSC-20">
          <mxGeometry x="0.0363" y="2" relative="1" as="geometry">
            <mxPoint x="-58" y="26" as="offset" />
          </mxGeometry>
        </mxCell>
        <mxCell id="AU5U2kqtZq918F_KihSC-4" value="BirthdayModal" style="ellipse;whiteSpace=wrap;html=1;" vertex="1" parent="1">
          <mxGeometry x="340" y="210" width="120" height="80" as="geometry" />
        </mxCell>
        <mxCell id="AU5U2kqtZq918F_KihSC-6" value="CalendarTiles" style="ellipse;whiteSpace=wrap;html=1;" vertex="1" parent="1">
          <mxGeometry x="10" y="340" width="120" height="80" as="geometry" />
        </mxCell>
        <mxCell id="AU5U2kqtZq918F_KihSC-33" style="edgeStyle=orthogonalEdgeStyle;rounded=0;orthogonalLoop=1;jettySize=auto;html=1;exitX=0.5;exitY=1;exitDx=0;exitDy=0;" edge="1" parent="1" source="AU5U2kqtZq918F_KihSC-12" target="AU5U2kqtZq918F_KihSC-32">
          <mxGeometry relative="1" as="geometry" />
        </mxCell>
        <mxCell id="AU5U2kqtZq918F_KihSC-37" style="edgeStyle=orthogonalEdgeStyle;rounded=0;orthogonalLoop=1;jettySize=auto;html=1;exitX=1;exitY=0.5;exitDx=0;exitDy=0;entryX=0.5;entryY=0;entryDx=0;entryDy=0;" edge="1" parent="1" source="AU5U2kqtZq918F_KihSC-12" target="AU5U2kqtZq918F_KihSC-36">
          <mxGeometry relative="1" as="geometry" />
        </mxCell>
        <mxCell id="AU5U2kqtZq918F_KihSC-12" value="Calendar" style="ellipse;whiteSpace=wrap;html=1;" vertex="1" parent="1">
          <mxGeometry x="100" y="510" width="120" height="70" as="geometry" />
        </mxCell>
        <mxCell id="AU5U2kqtZq918F_KihSC-46" style="edgeStyle=orthogonalEdgeStyle;rounded=0;orthogonalLoop=1;jettySize=auto;html=1;entryX=0.5;entryY=0;entryDx=0;entryDy=0;dashed=1;" edge="1" parent="1" source="AU5U2kqtZq918F_KihSC-13" target="AU5U2kqtZq918F_KihSC-12">
          <mxGeometry relative="1" as="geometry">
            <Array as="points">
              <mxPoint x="-160" y="890" />
              <mxPoint x="-160" y="490" />
              <mxPoint x="160" y="490" />
            </Array>
          </mxGeometry>
        </mxCell>
        <mxCell id="AU5U2kqtZq918F_KihSC-47" value="modal state" style="edgeLabel;html=1;align=center;verticalAlign=middle;resizable=0;points=[];" vertex="1" connectable="0" parent="AU5U2kqtZq918F_KihSC-46">
          <mxGeometry x="-0.0355" relative="1" as="geometry">
            <mxPoint x="-40" y="106" as="offset" />
          </mxGeometry>
        </mxCell>
        <mxCell id="AU5U2kqtZq918F_KihSC-50" style="edgeStyle=orthogonalEdgeStyle;rounded=0;orthogonalLoop=1;jettySize=auto;html=1;exitX=1;exitY=0;exitDx=0;exitDy=0;entryX=0;entryY=1;entryDx=0;entryDy=0;dashed=1;dashPattern=1 1;" edge="1" parent="1" source="AU5U2kqtZq918F_KihSC-13" target="AU5U2kqtZq918F_KihSC-12">
          <mxGeometry relative="1" as="geometry">
            <mxPoint x="2.11764705882365" y="590" as="targetPoint" />
            <Array as="points">
              <mxPoint x="-10" y="862" />
              <mxPoint x="-10" y="569" />
            </Array>
          </mxGeometry>
        </mxCell>
        <mxCell id="AU5U2kqtZq918F_KihSC-51" value="modal state" style="edgeLabel;html=1;align=center;verticalAlign=middle;resizable=0;points=[];" vertex="1" connectable="0" parent="AU5U2kqtZq918F_KihSC-50">
          <mxGeometry x="0.0918" y="-2" relative="1" as="geometry">
            <mxPoint x="8" as="offset" />
          </mxGeometry>
        </mxCell>
        <mxCell id="AU5U2kqtZq918F_KihSC-13" value="BirthdayModal" style="ellipse;whiteSpace=wrap;html=1;" vertex="1" parent="1">
          <mxGeometry x="-100" y="850" width="120" height="80" as="geometry" />
        </mxCell>
        <mxCell id="AU5U2kqtZq918F_KihSC-15" style="edgeStyle=orthogonalEdgeStyle;rounded=0;orthogonalLoop=1;jettySize=auto;html=1;" edge="1" parent="1" source="AU5U2kqtZq918F_KihSC-14" target="AU5U2kqtZq918F_KihSC-13">
          <mxGeometry relative="1" as="geometry" />
        </mxCell>
        <mxCell id="AU5U2kqtZq918F_KihSC-14" value="CalendarTiles" style="ellipse;whiteSpace=wrap;html=1;" vertex="1" parent="1">
          <mxGeometry x="-100" y="710" width="120" height="80" as="geometry" />
        </mxCell>
        <mxCell id="AU5U2kqtZq918F_KihSC-22" style="edgeStyle=orthogonalEdgeStyle;rounded=0;orthogonalLoop=1;jettySize=auto;html=1;exitX=0;exitY=1;exitDx=0;exitDy=0;entryX=1;entryY=0;entryDx=0;entryDy=0;dashed=1;" edge="1" parent="1" source="AU5U2kqtZq918F_KihSC-1" target="AU5U2kqtZq918F_KihSC-3">
          <mxGeometry relative="1" as="geometry" />
        </mxCell>
        <mxCell id="AU5U2kqtZq918F_KihSC-23" value="birthdayCreated state" style="edgeLabel;html=1;align=center;verticalAlign=middle;resizable=0;points=[];" vertex="1" connectable="0" parent="AU5U2kqtZq918F_KihSC-22">
          <mxGeometry x="-0.1655" y="4" relative="1" as="geometry">
            <mxPoint x="58" y="133" as="offset" />
          </mxGeometry>
        </mxCell>
        <mxCell id="AU5U2kqtZq918F_KihSC-26" value="&lt;font style=&quot;font-size: 24px;&quot;&gt;&lt;b&gt;Current Structure:&lt;/b&gt;&lt;/font&gt;" style="text;html=1;align=center;verticalAlign=middle;resizable=0;points=[];autosize=1;strokeColor=none;fillColor=none;" vertex="1" parent="1">
          <mxGeometry x="-20" y="20" width="230" height="40" as="geometry" />
        </mxCell>
        <mxCell id="AU5U2kqtZq918F_KihSC-27" style="edgeStyle=orthogonalEdgeStyle;rounded=0;orthogonalLoop=1;jettySize=auto;html=1;exitX=0;exitY=1;exitDx=0;exitDy=0;entryX=0.395;entryY=0.01;entryDx=0;entryDy=0;entryPerimeter=0;strokeColor=none;movable=0;resizable=0;rotatable=0;deletable=0;editable=0;locked=1;connectable=0;" edge="1" parent="1" source="AU5U2kqtZq918F_KihSC-12" target="AU5U2kqtZq918F_KihSC-14">
          <mxGeometry relative="1" as="geometry" />
        </mxCell>
        <mxCell id="AU5U2kqtZq918F_KihSC-28" style="edgeStyle=orthogonalEdgeStyle;rounded=0;orthogonalLoop=1;jettySize=auto;html=1;entryX=0.5;entryY=0;entryDx=0;entryDy=0;" edge="1" parent="1">
          <mxGeometry relative="1" as="geometry">
            <mxPoint x="100" y="544.94" as="sourcePoint" />
            <mxPoint x="-40" y="709.94" as="targetPoint" />
            <Array as="points">
              <mxPoint x="-40" y="545" />
            </Array>
          </mxGeometry>
        </mxCell>
        <mxCell id="AU5U2kqtZq918F_KihSC-35" style="edgeStyle=orthogonalEdgeStyle;rounded=0;orthogonalLoop=1;jettySize=auto;html=1;exitX=0.5;exitY=1;exitDx=0;exitDy=0;entryX=0.5;entryY=0;entryDx=0;entryDy=0;" edge="1" parent="1" source="AU5U2kqtZq918F_KihSC-32" target="AU5U2kqtZq918F_KihSC-34">
          <mxGeometry relative="1" as="geometry" />
        </mxCell>
        <mxCell id="AU5U2kqtZq918F_KihSC-32" value="CalendarTiles" style="ellipse;whiteSpace=wrap;html=1;" vertex="1" parent="1">
          <mxGeometry x="100" y="710" width="120" height="80" as="geometry" />
        </mxCell>
        <mxCell id="AU5U2kqtZq918F_KihSC-34" value="BirthdayModal" style="ellipse;whiteSpace=wrap;html=1;" vertex="1" parent="1">
          <mxGeometry x="100" y="850" width="120" height="80" as="geometry" />
        </mxCell>
        <mxCell id="AU5U2kqtZq918F_KihSC-39" style="edgeStyle=orthogonalEdgeStyle;rounded=0;orthogonalLoop=1;jettySize=auto;html=1;exitX=0.5;exitY=1;exitDx=0;exitDy=0;entryX=0.5;entryY=0;entryDx=0;entryDy=0;" edge="1" parent="1" source="AU5U2kqtZq918F_KihSC-36" target="AU5U2kqtZq918F_KihSC-38">
          <mxGeometry relative="1" as="geometry" />
        </mxCell>
        <mxCell id="AU5U2kqtZq918F_KihSC-36" value="CalendarTiles" style="ellipse;whiteSpace=wrap;html=1;" vertex="1" parent="1">
          <mxGeometry x="320" y="710" width="120" height="80" as="geometry" />
        </mxCell>
        <mxCell id="AU5U2kqtZq918F_KihSC-45" style="edgeStyle=orthogonalEdgeStyle;rounded=0;orthogonalLoop=1;jettySize=auto;html=1;exitX=1;exitY=0;exitDx=0;exitDy=0;entryX=1;entryY=1;entryDx=0;entryDy=0;dashed=1;" edge="1" parent="1" source="AU5U2kqtZq918F_KihSC-38" target="AU5U2kqtZq918F_KihSC-36">
          <mxGeometry relative="1" as="geometry" />
        </mxCell>
        <mxCell id="AU5U2kqtZq918F_KihSC-38" value="BirthdayModal" style="ellipse;whiteSpace=wrap;html=1;" vertex="1" parent="1">
          <mxGeometry x="320" y="850" width="120" height="80" as="geometry" />
        </mxCell>
        <mxCell id="AU5U2kqtZq918F_KihSC-40" style="edgeStyle=orthogonalEdgeStyle;rounded=0;orthogonalLoop=1;jettySize=auto;html=1;exitX=1;exitY=1;exitDx=0;exitDy=0;" edge="1" parent="1" source="AU5U2kqtZq918F_KihSC-14">
          <mxGeometry relative="1" as="geometry">
            <mxPoint x="2" y="778" as="targetPoint" />
          </mxGeometry>
        </mxCell>
        <mxCell id="AU5U2kqtZq918F_KihSC-41" style="edgeStyle=orthogonalEdgeStyle;rounded=0;orthogonalLoop=1;jettySize=auto;html=1;exitX=1;exitY=0;exitDx=0;exitDy=0;dashed=1;entryX=1;entryY=1;entryDx=0;entryDy=0;" edge="1" parent="1" source="AU5U2kqtZq918F_KihSC-13" target="AU5U2kqtZq918F_KihSC-14">
          <mxGeometry relative="1" as="geometry">
            <mxPoint x="2" y="784" as="targetPoint" />
          </mxGeometry>
        </mxCell>
        <mxCell id="AU5U2kqtZq918F_KihSC-42" value="birthdayCreated state" style="edgeLabel;html=1;align=center;verticalAlign=middle;resizable=0;points=[];" vertex="1" connectable="0" parent="AU5U2kqtZq918F_KihSC-41">
          <mxGeometry x="0.0051" y="-1" relative="1" as="geometry">
            <mxPoint x="67" as="offset" />
          </mxGeometry>
        </mxCell>
        <mxCell id="AU5U2kqtZq918F_KihSC-43" value="birthdayCreated state" style="edgeLabel;html=1;align=center;verticalAlign=middle;resizable=0;points=[];" vertex="1" connectable="0" parent="1">
          <mxGeometry x="270.00451055106817" y="819.9950831004843" as="geometry" />
        </mxCell>
        <mxCell id="AU5U2kqtZq918F_KihSC-44" style="edgeStyle=orthogonalEdgeStyle;rounded=0;orthogonalLoop=1;jettySize=auto;html=1;exitX=1;exitY=0;exitDx=0;exitDy=0;entryX=0.841;entryY=0.914;entryDx=0;entryDy=0;entryPerimeter=0;dashed=1;" edge="1" parent="1" source="AU5U2kqtZq918F_KihSC-34" target="AU5U2kqtZq918F_KihSC-32">
          <mxGeometry relative="1" as="geometry">
            <Array as="points">
              <mxPoint x="200" y="862" />
              <mxPoint x="200" y="820" />
              <mxPoint x="201" y="820" />
            </Array>
          </mxGeometry>
        </mxCell>
      </root>
    </mxGraphModel>
  </diagram>
</mxfile>
